<svg width="120" height="120" viewBox="0 0 120 120" fill="none" xmlns="http://www.w3.org/2000/svg">
<g clip-path="url(#clip0_36_99)">
<path d="M71.9474 91.7964L64.6707 99.0903C62.0775 101.69 57.8967 101.69 55.3035 99.0903L48.0533 91.7964C45.4601 89.1971 45.4601 85.0064 48.0533 82.4072L55.3035 75.1133C57.8967 72.514 62.0775 72.514 64.6707 75.1133L71.9474 82.4072C74.5406 85.0064 74.5406 89.1971 71.9474 91.7964Z" fill="#0066AF"/>
<path d="M60.0135 27C58.32 27 56.6265 27.6366 55.3299 28.9362L48.0796 36.2301C45.4865 38.8294 45.4865 43.0201 48.0796 45.6194L55.3299 52.8867C56.6265 54.1864 58.32 54.8229 60.0135 54.8229C61.707 54.8229 63.4005 54.1864 64.6971 52.8867L71.9473 45.6194C74.5405 43.0201 74.5405 38.8294 71.9473 36.2301L64.6971 28.9362C63.4005 27.6366 61.707 27 60.0135 27Z" fill="#C7D2EA"/>
<path d="M13.8925 27C12.199 27 10.5055 27.6366 9.20891 28.9362L1.93218 36.2301C-0.660986 38.8294 -0.660986 43.0201 1.93218 45.6194L9.18245 52.8867C10.479 54.1864 12.1725 54.8229 13.866 54.8229C15.5595 54.8229 17.253 54.1864 18.5496 52.8867L25.7999 45.6194C28.393 43.0201 28.393 38.8294 25.7999 36.2301L18.5496 28.9362C17.253 27.6366 15.5595 27 13.866 27" fill="#C7D2EA"/>
<path d="M36.913 50.0222C35.2195 50.0222 33.526 50.6588 32.2294 51.9584L24.9527 59.2258C22.3595 61.8251 22.3595 66.0158 24.9527 68.615L32.2294 75.8824C33.526 77.1821 35.2195 77.8186 36.913 77.8186C38.6065 77.8186 40.3 77.1821 41.5966 75.8824L48.8733 68.615C51.4665 66.0158 51.4665 61.8251 48.8733 59.2258L41.5966 51.9584C40.3 50.6588 38.6065 50.0222 36.913 50.0222Z" fill="#6A91C8"/>
<path d="M83.034 50.0222C81.3405 50.0222 79.647 50.6588 78.3504 51.9584L71.1001 59.2258C68.507 61.8251 68.507 66.0158 71.1001 68.615L78.3504 75.8824C79.647 77.1821 81.3405 77.8186 83.034 77.8186C84.7275 77.8186 86.421 77.1821 87.7176 75.8824L94.9678 68.615C97.561 66.0158 97.561 61.8251 94.9678 59.2258L87.7176 51.9584C86.421 50.6588 84.7275 50.0222 83.034 50.0222Z" fill="#6A91C8"/>
<path d="M106.108 27C104.415 27 102.721 27.6366 101.425 28.9362L94.148 36.2301C91.5548 38.8294 91.5548 43.0201 94.148 45.6194L101.425 52.8867C102.721 54.1864 104.415 54.8229 106.108 54.8229C107.802 54.8229 109.495 54.1864 110.792 52.8867L118.069 45.6194C120.662 43.0201 120.662 38.8294 118.069 36.2301L110.792 28.9362C109.495 27.6366 107.802 27 106.108 27Z" fill="#C7D2EA"/>
</g>
<defs>
<clipPath id="clip0_36_99">
<rect width="120" height="74" fill="white" transform="translate(0 27)"/>
</clipPath>
</defs>
</svg>
