<svg width="234" height="73" viewBox="0 0 234 73" fill="none" xmlns="http://www.w3.org/2000/svg">
<g clip-path="url(#clip0_36_97)">
<mask id="mask0_36_97" style="mask-type:luminance" maskUnits="userSpaceOnUse" x="0" y="23" width="165" height="27">
<path d="M0.666992 23.363H164.163V49.9672H0.666992V23.363Z" fill="white"/>
</mask>
<g mask="url(#mask0_36_97)">
<path d="M25.7277 23.7907C25.5674 23.5783 25.3015 23.4446 25.0356 23.4446H21.5779C21.2318 23.4446 20.9392 23.6303 20.807 23.9496L13.385 42.8589L5.98985 23.9496C5.85762 23.6303 5.56502 23.4446 5.21896 23.4446H1.76121C1.49534 23.4446 1.22806 23.5783 1.0691 23.7907C0.910139 24.0284 0.883411 24.321 0.988916 24.5587L10.7784 48.7475C10.9106 49.0654 11.2032 49.2779 11.5493 49.2779H15.2996C15.6189 49.2779 15.9383 49.0654 16.0719 48.7475L25.8079 24.5587C25.9134 24.321 25.8867 24.0284 25.7277 23.7907ZM34.3468 45.6175C30.9143 45.6175 29.3458 42.541 29.3458 39.6769C29.3458 36.8128 30.9143 33.763 34.3468 33.763C37.7778 33.763 39.321 36.8128 39.321 39.6769C39.321 42.541 37.7778 45.6175 34.3468 45.6175ZM34.3468 29.6778C28.8127 29.6778 24.8232 33.8685 24.8232 39.6769C24.8232 45.4853 28.8127 49.7013 34.3468 49.7013C39.8527 49.7013 43.869 45.4853 43.869 39.6769C43.869 33.8685 39.8527 29.6778 34.3468 29.6778ZM50.9181 23.4446H48.1778C47.7262 23.4446 47.3534 23.816 47.3534 24.2675V48.4282C47.3534 48.9065 47.7262 49.2779 48.1778 49.2779H50.9181C51.3711 49.2779 51.7424 48.9065 51.7424 48.4282V24.2675C51.7424 23.816 51.3711 23.4446 50.9181 23.4446ZM71.666 30.1027H68.9538C68.5008 30.1027 68.1281 30.4741 68.1281 30.9242V43.5229C67.2503 44.5569 65.6016 45.6175 63.7925 45.6175C61.5052 45.6175 60.6541 44.7693 60.6541 42.4608V30.9242C60.6541 30.4741 60.2813 30.1027 59.8297 30.1027H57.0894C56.6379 30.1027 56.2651 30.4741 56.2651 30.9242V43.2838C56.2651 47.4744 58.499 49.7013 62.7023 49.7013C64.6169 49.7013 66.5328 49.0387 68.1281 47.8458V48.4282C68.1281 48.9065 68.5008 49.2779 68.9538 49.2779H71.666C72.1457 49.2779 72.5185 48.9065 72.5185 48.4282V30.9242C72.5185 30.4741 72.1457 30.1027 71.666 30.1027ZM87.6001 29.6778C85.4196 29.6778 83.5304 30.5261 82.1476 31.5615V30.9242C82.1476 30.4741 81.7748 30.1027 81.3232 30.1027H78.5829C78.1299 30.1027 77.7586 30.4741 77.7586 30.9242V48.4282C77.7586 48.9065 78.1299 49.2779 78.5829 49.2779H81.3232C81.7748 49.2779 82.1476 48.9065 82.1476 48.4282V35.9364C83.0788 34.8237 84.7275 33.763 86.5098 33.763C88.7705 33.763 89.6483 34.6647 89.6483 36.9985V48.4282C89.6483 48.9065 90.021 49.2779 90.4726 49.2779H93.1595C93.6124 49.2779 93.9838 48.9065 93.9838 48.4282V36.1488C93.9838 31.9582 91.7232 29.6778 87.6001 29.6778ZM107.79 45.3784C107.684 45.1139 107.445 44.9282 107.178 44.8748C106.885 44.8213 106.592 44.9282 106.407 45.1407C106.168 45.3784 105.715 45.6175 105.156 45.6175C104.412 45.6175 104.252 44.8481 104.252 44.2122V34.1597H106.992C107.445 34.1597 107.816 33.7883 107.816 33.3114V30.9242C107.816 30.4741 107.445 30.1027 106.992 30.1027H104.252V26.1512C104.252 25.6996 103.88 25.3282 103.427 25.3282H100.662C100.182 25.3282 99.8105 25.6996 99.8105 26.1512V30.1027H97.7356C97.2826 30.1027 96.9098 30.4741 96.9098 30.9242V33.3114C96.9098 33.7883 97.2826 34.1597 97.7356 34.1597H99.8105V44.7693C99.8105 47.8978 101.566 49.7013 104.571 49.7013C106.168 49.7013 107.418 49.2511 108.375 48.3494C108.641 48.1103 108.721 47.7656 108.589 47.4477L107.79 45.3784ZM115.052 37.7145C115.477 35.8042 116.914 33.5773 119.84 33.5773C122.953 33.5773 124.362 35.8042 124.708 37.7145H115.052ZM119.893 29.6778C114.467 29.6778 110.396 33.974 110.396 39.6769C110.396 45.5641 114.441 49.7013 120.212 49.7013C123.192 49.7013 125.798 48.6941 127.767 46.7584C128.059 46.4658 128.113 45.9889 127.873 45.671L126.543 43.8943C126.41 43.6819 126.198 43.575 125.932 43.5482C125.692 43.5482 125.452 43.6284 125.293 43.8141C124.043 45.0605 122.287 45.8032 120.425 45.8032C117.286 45.8032 115.557 43.7086 115.079 41.4001H128.325C128.778 41.4001 129.151 41.0288 129.151 40.5786V39.8893C129.151 33.8685 125.347 29.6778 119.893 29.6778ZM136.252 37.7145C136.651 35.8042 138.114 33.5773 141.04 33.5773C144.152 33.5773 145.563 35.8042 145.908 37.7145H136.252ZM141.094 29.6778C135.667 29.6778 131.597 33.974 131.597 39.6769C131.597 45.5641 135.64 49.7013 141.413 49.7013C144.366 49.7013 146.999 48.6941 148.967 46.7584C149.26 46.4658 149.313 45.9889 149.048 45.671L147.744 43.8943C147.611 43.6819 147.372 43.575 147.132 43.5482C146.892 43.5229 146.653 43.6284 146.493 43.8141C145.244 45.0605 143.461 45.8032 141.626 45.8032C138.487 45.8032 136.758 43.7086 136.279 41.4001H149.526C149.979 41.4001 150.35 41.0288 150.35 40.5786V39.8893C150.35 33.8685 146.546 29.6778 141.094 29.6778ZM163.225 29.7046C161.417 29.7046 159.688 30.3939 158.198 31.667V30.9242C158.198 30.4741 157.826 30.1027 157.373 30.1027H154.634C154.181 30.1027 153.809 30.4741 153.809 30.9242V48.4282C153.809 48.9065 154.181 49.2779 154.634 49.2779H157.373C157.826 49.2779 158.198 48.9065 158.198 48.4282V36.2825C158.969 35.1416 160.859 34.0809 162.161 34.0809C162.507 34.0809 162.8 34.1076 163.119 34.1597C163.358 34.1597 163.597 34.1076 163.785 33.9473C163.943 33.7883 164.05 33.5506 164.05 33.3114V30.5261C164.05 30.0759 163.678 29.7046 163.225 29.7046Z" fill="#0166B0"/>
</g>
<mask id="mask1_36_97" style="mask-type:luminance" maskUnits="userSpaceOnUse" x="167" y="23" width="67" height="27">
<path d="M167.765 23.363H233.667V49.9672H167.765V23.363Z" fill="white"/>
</mask>
<g mask="url(#mask1_36_97)">
<path d="M189.134 23.4446H186.128C185.677 23.4446 185.304 23.816 185.304 24.2675V33.8418H172.775V24.2675C172.775 23.816 172.403 23.4446 171.951 23.4446H168.918C168.467 23.4446 168.094 23.816 168.094 24.2675V48.4282C168.094 48.9065 168.467 49.2779 168.918 49.2779H171.951C172.403 49.2779 172.775 48.9065 172.775 48.4282V38.1647H185.304V48.4282C185.304 48.9065 185.677 49.2779 186.128 49.2779H189.134C189.614 49.2779 189.985 48.9065 189.985 48.4282V24.2675C189.985 23.816 189.614 23.4446 189.134 23.4446ZM210.016 30.1027H207.275C206.824 30.1027 206.451 30.4741 206.451 30.9242V43.5229C205.6 44.5569 203.951 45.6175 202.116 45.6175C199.855 45.6175 199.004 44.7693 199.004 42.4608V30.9242C199.004 30.4741 198.631 30.1027 198.151 30.1027H195.439C194.986 30.1027 194.615 30.4741 194.615 30.9242V43.2838C194.615 47.4744 196.822 49.7013 201.025 49.7013C202.94 49.7013 204.883 49.0387 206.451 47.8458V48.4282C206.451 48.9065 206.824 49.2779 207.275 49.2779H210.016C210.469 49.2779 210.84 48.9065 210.84 48.4282V30.9242C210.84 30.4741 210.469 30.1027 210.016 30.1027ZM229.008 39.7036C229.008 43.2838 227.12 45.6175 224.194 45.6175C222.492 45.6175 220.656 44.7158 219.752 43.4427V35.9899C220.549 34.8757 222.305 33.763 224.194 33.763C227.12 33.763 229.008 36.0968 229.008 39.7036ZM224.86 29.6778C222.97 29.6778 221.188 30.3151 219.752 31.508V24.2675C219.752 23.816 219.379 23.4446 218.927 23.4446H216.187C215.736 23.4446 215.363 23.816 215.363 24.2675V48.4282C215.363 48.9065 215.736 49.2779 216.187 49.2779H218.927C219.379 49.2779 219.752 48.9065 219.752 48.4282V47.8978C221.188 49.0387 222.997 49.7013 224.86 49.7013C230.02 49.7013 233.504 45.6977 233.504 39.7036C233.504 33.7095 230.02 29.6778 224.86 29.6778Z" fill="#F7964A"/>
</g>
<mask id="mask2_36_97" style="mask-type:luminance" maskUnits="userSpaceOnUse" x="183" y="0" width="25" height="10">
<path d="M183.25 0H207.378V9.3182H183.25V0Z" fill="white"/>
</mask>
<g mask="url(#mask2_36_97)">
<path d="M202.701 0.265872C202.169 0.265872 201.61 0.476882 201.211 0.874988L198.897 3.20876C198.072 4.0317 198.072 5.35684 198.897 6.17978L201.211 8.48682C201.61 8.88493 202.169 9.09734 202.701 9.09734C203.232 9.09734 203.791 8.88493 204.19 8.48682L206.504 6.17978C207.329 5.35684 207.329 4.0317 206.504 3.20876L204.19 0.874988C203.791 0.476882 203.232 0.265872 202.701 0.265872ZM187.99 0.265872C187.432 0.265872 186.9 0.476882 186.501 0.874988L184.187 3.20876C183.362 4.0317 183.362 5.35684 184.187 6.17978L186.501 8.48682C186.9 8.88493 187.432 9.09734 187.99 9.09734C188.522 9.09734 189.054 8.88493 189.48 8.48682L191.794 6.17978C192.619 5.35684 192.619 4.0317 191.794 3.20876L189.48 0.874988C189.054 0.476882 188.522 0.265872 187.99 0.265872Z" fill="#C7D2EA"/>
</g>
<path d="M195.332 7.5851C194.8 7.5851 194.242 7.77079 193.842 8.19563L191.528 10.5027C190.704 11.3242 190.704 12.6507 191.528 13.4737L193.842 15.7807C194.242 16.2042 194.8 16.4166 195.332 16.4166C195.864 16.4166 196.422 16.2042 196.822 15.7807L199.136 13.4737C199.96 12.6507 199.96 11.3242 199.136 10.5027L196.822 8.19563C196.422 7.77079 195.864 7.5851 195.332 7.5851ZM210.042 7.5851C209.511 7.5851 208.952 7.77079 208.553 8.19563L206.239 10.5027C205.414 11.3242 205.414 12.6507 206.239 13.4737L208.553 15.7807C208.952 16.2042 209.511 16.4166 210.042 16.4166C210.574 16.4166 211.133 16.2042 211.532 15.7807L213.846 13.4737C214.671 12.6507 214.671 11.3242 213.846 10.5027L211.532 8.19563C211.133 7.77079 210.574 7.5851 210.042 7.5851Z" fill="#6991C9"/>
<mask id="mask3_36_97" style="mask-type:luminance" maskUnits="userSpaceOnUse" x="212" y="0" width="11" height="10">
<path d="M212.78 0H222.143V9.3182H212.78V0Z" fill="white"/>
</mask>
<g mask="url(#mask3_36_97)">
<path d="M217.411 0.265872C216.88 0.265872 216.321 0.476882 215.922 0.874988L213.608 3.20876C212.783 4.0317 212.783 5.35684 213.608 6.17978L215.922 8.48682C216.321 8.88493 216.88 9.09734 217.411 9.09734C217.943 9.09734 218.502 8.88493 218.901 8.48682L221.215 6.17978C222.039 5.35684 222.039 4.0317 221.215 3.20876L218.901 0.874988C218.502 0.476882 217.943 0.265872 217.411 0.265872Z" fill="#C7D2EA"/>
</g>
<path d="M206.504 20.8196L204.19 23.1267C203.366 23.9496 202.035 23.9496 201.211 23.1267L198.897 20.8196C198.072 19.9981 198.072 18.6716 198.897 17.8486L201.211 15.5416C202.035 14.7201 203.366 14.7201 204.19 15.5416L206.504 17.8486C207.329 18.6716 207.329 19.9981 206.504 20.8196Z" fill="#0166B0"/>
<path d="M118.162 64.982L118.948 62.848H122.655L123.44 64.982H124.283L121.295 56.9397H120.296L117.342 64.982H118.162ZM120.688 58.0736C120.733 57.9624 120.778 57.8161 120.79 57.7486C120.801 57.8274 120.857 57.9624 120.891 58.0736L122.396 62.1404H119.194L120.688 58.0736Z" fill="#030546"/>
<path d="M118.16 64.9826L118.946 62.8486H122.654L123.439 64.9826H124.283L121.294 56.9389H120.297L117.34 64.9826H118.16ZM120.688 58.0742C120.733 57.9616 120.779 57.8167 120.789 57.7478C120.8 57.828 120.855 57.9616 120.892 58.0742L122.397 62.141H119.194L120.688 58.0742Z" stroke="#030546" stroke-width="0.5"/>
<path d="M128.449 64.982H131.773C133.47 64.982 134.448 64.1619 134.448 62.758C134.448 61.8028 134.009 61.1515 133.143 60.8716C133.919 60.5452 134.324 59.8939 134.324 58.9837C134.324 57.6136 133.335 56.7709 131.717 56.7709H128.449V64.982ZM131.593 58.0398C132.402 58.0398 132.852 58.4224 132.852 59.13C132.852 59.8601 132.413 60.2751 131.627 60.2751H129.887V58.0398H131.593ZM131.717 61.4891C132.515 61.4891 132.976 61.8816 132.976 62.5779C132.976 63.3193 132.526 63.7132 131.717 63.7132H129.887V61.4891H131.717Z" fill="#030546"/>
<path d="M138.04 65.1283C139.489 65.1283 140.499 64.3982 140.735 63.1842H139.466C139.309 63.7132 138.815 64.0044 138.062 64.0044C137.152 64.0044 136.636 63.5106 136.535 62.5329L140.713 62.5217V62.1067C140.713 60.3764 139.656 59.2651 137.995 59.2651C136.366 59.2651 135.23 60.4664 135.23 62.208C135.23 63.9256 136.388 65.1283 138.04 65.1283ZM138.006 60.3876C138.826 60.3876 139.354 60.8941 139.354 61.6579H136.568C136.702 60.8265 137.197 60.3876 138.006 60.3876Z" fill="#030546"/>
<path d="M143.698 64.982V60.579H144.777V59.4339H143.698V57.7036H142.328V59.4339H141.262V60.579H142.328V64.982H143.698Z" fill="#030546"/>
<path d="M147.517 64.982V60.579H148.596V59.4339H147.517V57.7036H146.146V59.4339H145.08V60.579H146.146V64.982H147.517Z" fill="#030546"/>
<path d="M151.93 65.1283C153.379 65.1283 154.389 64.3982 154.626 63.1842H153.357C153.199 63.7132 152.705 64.0044 151.953 64.0044C151.043 64.0044 150.526 63.5106 150.425 62.5329L154.603 62.5217V62.1067C154.603 60.3764 153.547 59.2651 151.885 59.2651C150.256 59.2651 149.121 60.4664 149.121 62.208C149.121 63.9256 150.279 65.1283 151.93 65.1283ZM151.897 60.3876C152.717 60.3876 153.244 60.8941 153.244 61.6579H150.459C150.593 60.8265 151.088 60.3876 151.897 60.3876Z" fill="#030546"/>
<path d="M159.184 59.4114C158.96 59.3551 158.769 59.3326 158.578 59.3326C157.836 59.3326 157.309 59.7026 157.072 60.2526L156.994 59.4451H155.702V64.982H157.072V62.2867C157.072 61.2078 157.69 60.6802 158.679 60.6802H159.184V59.4114Z" fill="#030546"/>
<path d="M163.913 57.9849C164.902 57.9849 165.731 58.4337 165.99 59.4001H167.507C167.27 57.7261 165.822 56.6359 163.946 56.6359C161.475 56.6359 159.846 58.4112 159.846 60.9053C159.846 63.4318 161.452 65.1058 163.755 65.1058C164.868 65.1058 165.799 64.6669 166.249 64.0381L166.339 64.982H167.552V60.3651H163.733V61.6354H166.215V61.6692C166.215 62.9831 165.35 63.7694 163.924 63.7694C162.407 63.7694 161.351 62.7692 161.351 60.9377C161.351 59.1638 162.284 57.9849 163.913 57.9849Z" fill="#030546"/>
<path d="M168.57 62.1967C168.57 63.9256 169.818 65.1171 171.536 65.1171C173.255 65.1171 174.501 63.9256 174.501 62.1967C174.501 60.4664 173.255 59.2763 171.536 59.2763C169.818 59.2763 168.57 60.4664 168.57 62.1967ZM169.942 62.1967C169.942 61.1853 170.593 60.5002 171.536 60.5002C172.48 60.5002 173.131 61.1853 173.131 62.1967C173.131 63.2067 172.48 63.8918 171.536 63.8918C170.593 63.8918 169.942 63.2067 169.942 62.1967Z" fill="#030546"/>
<path d="M175.263 62.1967C175.263 63.9256 176.51 65.1171 178.228 65.1171C179.947 65.1171 181.193 63.9256 181.193 62.1967C181.193 60.4664 179.947 59.2763 178.228 59.2763C176.51 59.2763 175.263 60.4664 175.263 62.1967ZM176.634 62.1967C176.634 61.1853 177.286 60.5002 178.228 60.5002C179.172 60.5002 179.823 61.1853 179.823 62.1967C179.823 63.2067 179.172 63.8918 178.228 63.8918C177.286 63.8918 176.634 63.2067 176.634 62.1967Z" fill="#030546"/>
<path d="M184.562 65.1283C185.404 65.1283 186.123 64.757 186.459 64.1169L186.549 64.982H187.808V56.6246H186.448V60.1415C186.101 59.59 185.416 59.2651 184.641 59.2651C182.967 59.2651 181.955 60.5002 181.955 62.2305C181.955 63.9481 182.955 65.1283 184.562 65.1283ZM184.866 63.8707C183.91 63.8707 183.327 63.173 183.327 62.1854C183.327 61.1965 183.91 60.4889 184.866 60.4889C185.819 60.4889 186.437 61.1853 186.437 62.1854C186.437 63.1842 185.819 63.8707 184.866 63.8707Z" fill="#030546"/>
<path d="M128.45 64.9826H131.773C133.471 64.9826 134.447 64.1625 134.447 62.7586C134.447 61.8034 134.008 61.1507 133.144 60.8707C133.921 60.5444 134.323 59.8945 134.323 58.9843C134.323 57.6142 133.337 56.7715 131.718 56.7715H128.45V64.9826ZM131.596 58.0418C132.405 58.0418 132.85 58.423 132.85 59.1306C132.85 59.8593 132.416 60.2757 131.628 60.2757H129.886V58.0418H131.596ZM131.718 61.4883C132.517 61.4883 132.974 61.8836 132.974 62.5771C132.974 63.3199 132.527 63.7123 131.718 63.7123H129.886V61.4883H131.718ZM138.038 65.1275C139.489 65.1275 140.499 64.3974 140.734 63.1862H139.465C139.309 63.7123 138.815 64.0063 138.061 64.0063C137.154 64.0063 136.635 63.5098 136.533 62.5335L140.713 62.5222V62.1059C140.713 60.3784 139.656 59.2642 137.995 59.2642C136.366 59.2642 135.231 60.4656 135.231 62.2071C135.231 63.9262 136.388 65.1275 138.038 65.1275ZM138.006 60.3882C138.826 60.3882 139.352 60.8932 139.352 61.6585H136.568C136.703 60.8243 137.197 60.3882 138.006 60.3882ZM143.698 64.9826V60.5781H144.777V59.4345H143.698V57.7042H142.328V59.4345H141.26V60.5781H142.328V64.9826H143.698ZM147.516 64.9826V60.5781H148.595V59.4345H147.516V57.7042H146.145V59.4345H145.078V60.5781H146.145V64.9826H147.516ZM151.929 65.1275C153.38 65.1275 154.389 64.3974 154.625 63.1862H153.355C153.199 63.7123 152.705 64.0063 151.951 64.0063C151.044 64.0063 150.525 63.5098 150.423 62.5335L154.603 62.5222V62.1059C154.603 60.3784 153.548 59.2642 151.885 59.2642C150.256 59.2642 149.121 60.4656 149.121 62.2071C149.121 63.9262 150.278 65.1275 151.929 65.1275ZM151.896 60.3882C152.716 60.3882 153.242 60.8932 153.242 61.6585H150.46C150.594 60.8243 151.087 60.3882 151.896 60.3882ZM159.185 59.4091C158.959 59.3543 158.768 59.3332 158.578 59.3332C157.835 59.3332 157.309 59.7032 157.073 60.2546L156.994 59.4457H155.703V64.9826H157.073V62.2859C157.073 61.2084 157.691 60.6794 158.678 60.6794H159.185V59.4091ZM163.911 57.9841C164.9 57.9841 165.731 58.4329 165.989 59.3993H167.505C167.27 57.7253 165.821 56.6379 163.946 56.6379C161.476 56.6379 159.847 58.4118 159.847 60.9045C159.847 63.4324 161.451 65.105 163.754 65.105C164.868 65.105 165.8 64.6661 166.246 64.0387L166.338 64.9826H167.552V60.3671H163.732V61.6332H166.214V61.6698C166.214 62.9822 165.35 63.77 163.924 63.77C162.407 63.77 161.352 62.7684 161.352 60.9369C161.352 59.163 162.285 57.9841 163.911 57.9841ZM168.57 62.1959C168.57 63.9262 169.818 65.1163 171.537 65.1163C173.253 65.1163 174.501 63.9262 174.501 62.1959C174.501 60.4656 173.253 59.2755 171.537 59.2755C169.818 59.2755 168.57 60.4656 168.57 62.1959ZM169.942 62.1959C169.942 61.1873 170.595 60.5008 171.537 60.5008C172.481 60.5008 173.131 61.1873 173.131 62.1959C173.131 63.2073 172.481 63.8938 171.537 63.8938C170.595 63.8938 169.942 63.2073 169.942 62.1959ZM175.262 62.1959C175.262 63.9262 176.51 65.1163 178.23 65.1163C179.946 65.1163 181.194 63.9262 181.194 62.1959C181.194 60.4656 179.946 59.2755 178.23 59.2755C176.51 59.2755 175.262 60.4656 175.262 62.1959ZM176.634 62.1959C176.634 61.1873 177.286 60.5008 178.23 60.5008C179.173 60.5008 179.823 61.1873 179.823 62.1959C179.823 63.2073 179.173 63.8938 178.23 63.8938C177.286 63.8938 176.634 63.2073 176.634 62.1959ZM184.563 65.1275C185.405 65.1275 186.123 64.7575 186.461 64.1189L186.551 64.9826H187.807V56.6266H186.45V60.1421C186.101 59.5906 185.416 59.2642 184.639 59.2642C182.967 59.2642 181.955 60.5008 181.955 62.2282C181.955 63.9487 182.957 65.1275 184.563 65.1275ZM184.864 63.8685C183.911 63.8685 183.327 63.175 183.327 62.1846C183.327 61.1971 183.911 60.4895 184.864 60.4895C185.82 60.4895 186.439 61.1873 186.439 62.1846C186.439 63.1862 185.82 63.8685 184.864 63.8685Z" stroke="#030546" stroke-width="0.25"/>
<path d="M195.604 62.0279C197.141 62.0279 198.13 60.9278 198.13 59.4662C198.13 57.9512 197.153 56.9397 195.604 56.9397H192.537V64.982H193.346V62.0279H195.604ZM195.491 57.6698C196.603 57.6698 197.288 58.3437 197.288 59.4564C197.288 60.5564 196.614 61.2978 195.446 61.2978H193.346V57.6698H195.491Z" fill="#030546"/>
<path d="M202.105 59.4775C201.914 59.4339 201.768 59.4226 201.6 59.4226C200.836 59.4226 200.264 59.8038 200.05 60.3876L199.994 59.545H199.264V64.982H200.039V61.8816C200.039 60.849 200.679 60.1752 201.679 60.1752H202.105V59.4775Z" fill="#030546"/>
<path d="M202.755 62.2642C202.755 63.9143 203.924 65.1171 205.519 65.1171C207.113 65.1171 208.282 63.9143 208.282 62.2642C208.282 60.6015 207.113 59.4001 205.519 59.4001C203.924 59.4001 202.755 60.6015 202.755 62.2642ZM203.541 62.253C203.541 60.9939 204.35 60.0964 205.519 60.0964C206.675 60.0964 207.496 60.9939 207.496 62.253C207.496 63.5331 206.675 64.4207 205.519 64.4207C204.35 64.4207 203.541 63.5331 203.541 62.253Z" fill="#030546"/>
<path d="M211.649 65.1171C212.56 65.1171 213.323 64.7119 213.705 63.8707L213.783 64.982H214.457V56.7934H213.682V60.579C213.301 59.7926 212.582 59.4001 211.683 59.4001C210.065 59.4001 209.133 60.6352 209.133 62.2755C209.133 63.9031 210.065 65.1171 211.649 65.1171ZM211.785 64.4095C210.604 64.4095 209.919 63.5106 209.919 62.253C209.919 61.0052 210.604 60.0964 211.785 60.0964C212.975 60.0964 213.671 61.0052 213.671 62.253C213.671 63.5106 212.975 64.4095 211.785 64.4095Z" fill="#030546"/>
<path d="M219.893 59.545V62.4316C219.893 63.7244 219.275 64.4207 218.23 64.4207C217.365 64.4207 216.792 63.9593 216.792 62.668V59.5338H216.006V62.9155C216.006 64.2407 216.702 65.1171 217.982 65.1171C218.836 65.1171 219.589 64.6894 219.893 64.0606L219.994 64.982H220.668V59.545H219.893Z" fill="#030546"/>
<path d="M221.9 62.2755C221.9 63.9818 222.946 65.1171 224.485 65.1171C225.72 65.1171 226.686 64.387 226.945 63.2743H226.159C225.945 63.9706 225.293 64.4207 224.485 64.4207C223.383 64.4207 222.664 63.5556 222.664 62.2642C222.664 60.9278 223.439 60.0852 224.541 60.0852C225.293 60.0852 225.945 60.5002 226.147 61.2528H226.922C226.709 60.1302 225.787 59.4001 224.53 59.4001C222.946 59.4001 221.9 60.5677 221.9 62.2755Z" fill="#030546"/>
<path d="M229.368 64.982V60.1977H230.459V59.545H229.368V57.8274H228.604V59.545H227.516V60.1977H228.604V64.982H229.368Z" fill="#030546"/>
<path d="M195.605 62.0285C197.142 62.0285 198.13 60.9256 198.13 59.4668C198.13 57.9504 197.153 56.9389 195.605 56.9389H192.535V64.9826H193.344V62.0285H195.605ZM195.492 57.6704C196.602 57.6704 197.289 58.3428 197.289 59.457C197.289 60.5556 196.613 61.2998 195.446 61.2998H193.344V57.6704H195.492ZM202.104 59.4781C201.915 59.4345 201.766 59.4204 201.6 59.4204C200.835 59.4204 200.261 59.8044 200.05 60.3882L199.992 59.547H199.264V64.9826H200.039V61.8836C200.039 60.8496 200.679 60.1744 201.679 60.1744H202.104V59.4781ZM202.756 62.2648C202.756 63.9149 203.924 65.1163 205.518 65.1163C207.113 65.1163 208.282 63.9149 208.282 62.2648C208.282 60.6021 207.113 59.3993 205.518 59.3993C203.924 59.3993 202.756 60.6021 202.756 62.2648ZM203.54 62.2536C203.54 60.9945 204.349 60.0956 205.518 60.0956C206.674 60.0956 207.494 60.9945 207.494 62.2536C207.494 63.5337 206.674 64.4199 205.518 64.4199C204.349 64.4199 203.54 63.5337 203.54 62.2536ZM211.648 65.1163C212.559 65.1163 213.321 64.7139 213.705 63.8685L213.782 64.9826H214.456V56.794H213.684V60.5781C213.3 59.7932 212.581 59.3993 211.682 59.3993C210.066 59.3993 209.135 60.6358 209.135 62.2761C209.135 63.9037 210.066 65.1163 211.648 65.1163ZM211.783 64.4087C210.605 64.4087 209.918 63.5098 209.918 62.2536C209.918 61.0058 210.605 60.0956 211.783 60.0956C212.974 60.0956 213.67 61.0058 213.67 62.2536C213.67 63.5098 212.974 64.4087 211.783 64.4087ZM219.893 59.547V62.4322C219.893 63.7236 219.273 64.4199 218.229 64.4199C217.365 64.4199 216.791 63.9585 216.791 62.6671V59.5329H216.005V62.9147C216.005 64.2413 216.701 65.1163 217.982 65.1163C218.837 65.1163 219.589 64.6914 219.893 64.0612L219.992 64.9826H220.667V59.547H219.893ZM221.902 62.2761C221.902 63.981 222.946 65.1163 224.485 65.1163C225.719 65.1163 226.686 64.3876 226.945 63.2734H226.157C225.944 63.9698 225.294 64.4199 224.485 64.4199C223.382 64.4199 222.665 63.5562 222.665 62.2648C222.665 60.9256 223.44 60.0844 224.54 60.0844C225.294 60.0844 225.944 60.5008 226.146 61.252H226.923C226.709 60.1308 225.788 59.3993 224.528 59.3993C222.946 59.3993 221.902 60.5669 221.902 62.2761ZM229.37 64.9826V60.1969H230.458V59.547H229.37V57.828H228.605V59.547H227.516V60.1969H228.605V64.9826H229.37Z" stroke="#030546" stroke-width="0.5"/>
</g>
<defs>
<clipPath id="clip0_36_97">
<rect width="233" height="65.4975" fill="white" transform="translate(0.666992)"/>
</clipPath>
</defs>
</svg>
